<svg xmlns="http://www.w3.org/2000/svg" xmlns:xlink="http://www.w3.org/1999/xlink" width="187" height="48" viewBox="0 0 187 48">
  <defs>
    <clipPath id="clip-path">
      <rect width="187" height="48" fill="none"/>
    </clipPath>
  </defs>
  <g id="Repeat_Grid_1" data-name="Repeat Grid 1" clip-path="url(#clip-path)">
    <g transform="translate(-455 -364)">
      <rect id="Rectangle_1" data-name="Rectangle 1" width="6" height="6" transform="translate(455 364)" fill="#2b2b2b" opacity="0.8"/>
    </g>
    <g transform="translate(-435 -364)">
      <rect id="Rectangle_1-2" data-name="Rectangle 1" width="6" height="6" transform="translate(455 364)" fill="#2b2b2b" opacity="0.8"/>
    </g>
    <g transform="translate(-415 -364)">
      <rect id="Rectangle_1-3" data-name="Rectangle 1" width="6" height="6" transform="translate(455 364)" fill="#2b2b2b" opacity="0.8"/>
    </g>
    <g transform="translate(-395 -364)">
      <rect id="Rectangle_1-4" data-name="Rectangle 1" width="6" height="6" transform="translate(455 364)" fill="#2b2b2b" opacity="0.8"/>
    </g>
    <g transform="translate(-375 -364)">
      <rect id="Rectangle_1-5" data-name="Rectangle 1" width="6" height="6" transform="translate(455 364)" fill="#2b2b2b" opacity="0.8"/>
    </g>
    <g transform="translate(-355 -364)">
      <rect id="Rectangle_1-6" data-name="Rectangle 1" width="6" height="6" transform="translate(455 364)" fill="#2b2b2b" opacity="0.8"/>
    </g>
    <g transform="translate(-335 -364)">
      <rect id="Rectangle_1-7" data-name="Rectangle 1" width="6" height="6" transform="translate(455 364)" fill="#2b2b2b" opacity="0.8"/>
    </g>
    <g transform="translate(-315 -364)">
      <rect id="Rectangle_1-8" data-name="Rectangle 1" width="6" height="6" transform="translate(455 364)" fill="#2b2b2b" opacity="0.8"/>
    </g>
    <g transform="translate(-295 -364)">
      <rect id="Rectangle_1-9" data-name="Rectangle 1" width="6" height="6" transform="translate(455 364)" fill="#2b2b2b" opacity="0.8"/>
    </g>
    <g transform="translate(-275 -364)">
      <rect id="Rectangle_1-10" data-name="Rectangle 1" width="6" height="6" transform="translate(455 364)" fill="#2b2b2b" opacity="0.8"/>
    </g>
    <g transform="translate(-455 -344)">
      <rect id="Rectangle_1-11" data-name="Rectangle 1" width="6" height="6" transform="translate(455 364)" fill="#2b2b2b" opacity="0.8"/>
    </g>
    <g transform="translate(-435 -344)">
      <rect id="Rectangle_1-12" data-name="Rectangle 1" width="6" height="6" transform="translate(455 364)" fill="#2b2b2b" opacity="0.8"/>
    </g>
    <g transform="translate(-415 -344)">
      <rect id="Rectangle_1-13" data-name="Rectangle 1" width="6" height="6" transform="translate(455 364)" fill="#2b2b2b" opacity="0.8"/>
    </g>
    <g transform="translate(-395 -344)">
      <rect id="Rectangle_1-14" data-name="Rectangle 1" width="6" height="6" transform="translate(455 364)" fill="#2b2b2b" opacity="0.8"/>
    </g>
    <g transform="translate(-375 -344)">
      <rect id="Rectangle_1-15" data-name="Rectangle 1" width="6" height="6" transform="translate(455 364)" fill="#2b2b2b" opacity="0.8"/>
    </g>
    <g transform="translate(-355 -344)">
      <rect id="Rectangle_1-16" data-name="Rectangle 1" width="6" height="6" transform="translate(455 364)" fill="#2b2b2b" opacity="0.8"/>
    </g>
    <g transform="translate(-335 -344)">
      <rect id="Rectangle_1-17" data-name="Rectangle 1" width="6" height="6" transform="translate(455 364)" fill="#2b2b2b" opacity="0.8"/>
    </g>
    <g transform="translate(-315 -344)">
      <rect id="Rectangle_1-18" data-name="Rectangle 1" width="6" height="6" transform="translate(455 364)" fill="#2b2b2b" opacity="0.8"/>
    </g>
    <g transform="translate(-295 -344)">
      <rect id="Rectangle_1-19" data-name="Rectangle 1" width="6" height="6" transform="translate(455 364)" fill="#2b2b2b" opacity="0.8"/>
    </g>
    <g transform="translate(-275 -344)">
      <rect id="Rectangle_1-20" data-name="Rectangle 1" width="6" height="6" transform="translate(455 364)" fill="#2b2b2b" opacity="0.8"/>
    </g>
    <g transform="translate(-455 -324)">
      <rect id="Rectangle_1-21" data-name="Rectangle 1" width="6" height="6" transform="translate(455 364)" fill="#2b2b2b" opacity="0.8"/>
    </g>
    <g transform="translate(-435 -324)">
      <rect id="Rectangle_1-22" data-name="Rectangle 1" width="6" height="6" transform="translate(455 364)" fill="#2b2b2b" opacity="0.8"/>
    </g>
    <g transform="translate(-415 -324)">
      <rect id="Rectangle_1-23" data-name="Rectangle 1" width="6" height="6" transform="translate(455 364)" fill="#2b2b2b" opacity="0.8"/>
    </g>
    <g transform="translate(-395 -324)">
      <rect id="Rectangle_1-24" data-name="Rectangle 1" width="6" height="6" transform="translate(455 364)" fill="#2b2b2b" opacity="0.8"/>
    </g>
    <g transform="translate(-375 -324)">
      <rect id="Rectangle_1-25" data-name="Rectangle 1" width="6" height="6" transform="translate(455 364)" fill="#2b2b2b" opacity="0.8"/>
    </g>
    <g transform="translate(-355 -324)">
      <rect id="Rectangle_1-26" data-name="Rectangle 1" width="6" height="6" transform="translate(455 364)" fill="#2b2b2b" opacity="0.8"/>
    </g>
    <g transform="translate(-335 -324)">
      <rect id="Rectangle_1-27" data-name="Rectangle 1" width="6" height="6" transform="translate(455 364)" fill="#2b2b2b" opacity="0.8"/>
    </g>
    <g transform="translate(-315 -324)">
      <rect id="Rectangle_1-28" data-name="Rectangle 1" width="6" height="6" transform="translate(455 364)" fill="#2b2b2b" opacity="0.8"/>
    </g>
    <g transform="translate(-295 -324)">
      <rect id="Rectangle_1-29" data-name="Rectangle 1" width="6" height="6" transform="translate(455 364)" fill="#2b2b2b" opacity="0.8"/>
    </g>
    <g transform="translate(-275 -324)">
      <rect id="Rectangle_1-30" data-name="Rectangle 1" width="6" height="6" transform="translate(455 364)" fill="#2b2b2b" opacity="0.8"/>
    </g>
  </g>
</svg>
