<svg xmlns="http://www.w3.org/2000/svg" xmlns:xlink="http://www.w3.org/1999/xlink" width="189" height="117" viewBox="0 0 189 117">
  <defs>
    <clipPath id="clip-path">
      <rect width="189" height="117" fill="none"/>
    </clipPath>
  </defs>
  <g id="Repeat_Grid_3" data-name="Repeat Grid 3" clip-path="url(#clip-path)">
    <g transform="translate(-606 -662)">
      <rect id="Rectangle_59" data-name="Rectangle 59" width="6" height="6" transform="translate(606 662)" fill="#fff"/>
    </g>
    <g transform="translate(-588 -662)">
      <rect id="Rectangle_59-2" data-name="Rectangle 59" width="6" height="6" transform="translate(606 662)" fill="#fff"/>
    </g>
    <g transform="translate(-570 -662)">
      <rect id="Rectangle_59-3" data-name="Rectangle 59" width="6" height="6" transform="translate(606 662)" fill="#fff"/>
    </g>
    <g transform="translate(-552 -662)">
      <rect id="Rectangle_59-4" data-name="Rectangle 59" width="6" height="6" transform="translate(606 662)" fill="#fff"/>
    </g>
    <g transform="translate(-534 -662)">
      <rect id="Rectangle_59-5" data-name="Rectangle 59" width="6" height="6" transform="translate(606 662)" fill="#fff"/>
    </g>
    <g transform="translate(-516 -662)">
      <rect id="Rectangle_59-6" data-name="Rectangle 59" width="6" height="6" transform="translate(606 662)" fill="#fff"/>
    </g>
    <g transform="translate(-498 -662)">
      <rect id="Rectangle_59-7" data-name="Rectangle 59" width="6" height="6" transform="translate(606 662)" fill="#fff"/>
    </g>
    <g transform="translate(-480 -662)">
      <rect id="Rectangle_59-8" data-name="Rectangle 59" width="6" height="6" transform="translate(606 662)" fill="#fff"/>
    </g>
    <g transform="translate(-462 -662)">
      <rect id="Rectangle_59-9" data-name="Rectangle 59" width="6" height="6" transform="translate(606 662)" fill="#fff"/>
    </g>
    <g transform="translate(-444 -662)">
      <rect id="Rectangle_59-10" data-name="Rectangle 59" width="6" height="6" transform="translate(606 662)" fill="#fff"/>
    </g>
    <g transform="translate(-426 -662)">
      <rect id="Rectangle_59-11" data-name="Rectangle 59" width="6" height="6" transform="translate(606 662)" fill="#fff"/>
    </g>
    <g transform="translate(-606 -644)">
      <rect id="Rectangle_59-12" data-name="Rectangle 59" width="6" height="6" transform="translate(606 662)" fill="#fff"/>
    </g>
    <g transform="translate(-588 -644)">
      <rect id="Rectangle_59-13" data-name="Rectangle 59" width="6" height="6" transform="translate(606 662)" fill="#fff"/>
    </g>
    <g transform="translate(-570 -644)">
      <rect id="Rectangle_59-14" data-name="Rectangle 59" width="6" height="6" transform="translate(606 662)" fill="#fff"/>
    </g>
    <g transform="translate(-552 -644)">
      <rect id="Rectangle_59-15" data-name="Rectangle 59" width="6" height="6" transform="translate(606 662)" fill="#fff"/>
    </g>
    <g transform="translate(-534 -644)">
      <rect id="Rectangle_59-16" data-name="Rectangle 59" width="6" height="6" transform="translate(606 662)" fill="#fff"/>
    </g>
    <g transform="translate(-516 -644)">
      <rect id="Rectangle_59-17" data-name="Rectangle 59" width="6" height="6" transform="translate(606 662)" fill="#fff"/>
    </g>
    <g transform="translate(-498 -644)">
      <rect id="Rectangle_59-18" data-name="Rectangle 59" width="6" height="6" transform="translate(606 662)" fill="#fff"/>
    </g>
    <g transform="translate(-480 -644)">
      <rect id="Rectangle_59-19" data-name="Rectangle 59" width="6" height="6" transform="translate(606 662)" fill="#fff"/>
    </g>
    <g transform="translate(-462 -644)">
      <rect id="Rectangle_59-20" data-name="Rectangle 59" width="6" height="6" transform="translate(606 662)" fill="#fff"/>
    </g>
    <g transform="translate(-444 -644)">
      <rect id="Rectangle_59-21" data-name="Rectangle 59" width="6" height="6" transform="translate(606 662)" fill="#fff"/>
    </g>
    <g transform="translate(-426 -644)">
      <rect id="Rectangle_59-22" data-name="Rectangle 59" width="6" height="6" transform="translate(606 662)" fill="#fff"/>
    </g>
    <g transform="translate(-606 -626)">
      <rect id="Rectangle_59-23" data-name="Rectangle 59" width="6" height="6" transform="translate(606 662)" fill="#fff"/>
    </g>
    <g transform="translate(-588 -626)">
      <rect id="Rectangle_59-24" data-name="Rectangle 59" width="6" height="6" transform="translate(606 662)" fill="#fff"/>
    </g>
    <g transform="translate(-570 -626)">
      <rect id="Rectangle_59-25" data-name="Rectangle 59" width="6" height="6" transform="translate(606 662)" fill="#fff"/>
    </g>
    <g transform="translate(-552 -626)">
      <rect id="Rectangle_59-26" data-name="Rectangle 59" width="6" height="6" transform="translate(606 662)" fill="#fff"/>
    </g>
    <g transform="translate(-534 -626)">
      <rect id="Rectangle_59-27" data-name="Rectangle 59" width="6" height="6" transform="translate(606 662)" fill="#fff"/>
    </g>
    <g transform="translate(-516 -626)">
      <rect id="Rectangle_59-28" data-name="Rectangle 59" width="6" height="6" transform="translate(606 662)" fill="#fff"/>
    </g>
    <g transform="translate(-498 -626)">
      <rect id="Rectangle_59-29" data-name="Rectangle 59" width="6" height="6" transform="translate(606 662)" fill="#fff"/>
    </g>
    <g transform="translate(-480 -626)">
      <rect id="Rectangle_59-30" data-name="Rectangle 59" width="6" height="6" transform="translate(606 662)" fill="#fff"/>
    </g>
    <g transform="translate(-462 -626)">
      <rect id="Rectangle_59-31" data-name="Rectangle 59" width="6" height="6" transform="translate(606 662)" fill="#fff"/>
    </g>
    <g transform="translate(-444 -626)">
      <rect id="Rectangle_59-32" data-name="Rectangle 59" width="6" height="6" transform="translate(606 662)" fill="#fff"/>
    </g>
    <g transform="translate(-426 -626)">
      <rect id="Rectangle_59-33" data-name="Rectangle 59" width="6" height="6" transform="translate(606 662)" fill="#fff"/>
    </g>
    <g transform="translate(-606 -608)">
      <rect id="Rectangle_59-34" data-name="Rectangle 59" width="6" height="6" transform="translate(606 662)" fill="#fff"/>
    </g>
    <g transform="translate(-588 -608)">
      <rect id="Rectangle_59-35" data-name="Rectangle 59" width="6" height="6" transform="translate(606 662)" fill="#fff"/>
    </g>
    <g transform="translate(-570 -608)">
      <rect id="Rectangle_59-36" data-name="Rectangle 59" width="6" height="6" transform="translate(606 662)" fill="#fff"/>
    </g>
    <g transform="translate(-552 -608)">
      <rect id="Rectangle_59-37" data-name="Rectangle 59" width="6" height="6" transform="translate(606 662)" fill="#fff"/>
    </g>
    <g transform="translate(-534 -608)">
      <rect id="Rectangle_59-38" data-name="Rectangle 59" width="6" height="6" transform="translate(606 662)" fill="#fff"/>
    </g>
    <g transform="translate(-516 -608)">
      <rect id="Rectangle_59-39" data-name="Rectangle 59" width="6" height="6" transform="translate(606 662)" fill="#fff"/>
    </g>
    <g transform="translate(-498 -608)">
      <rect id="Rectangle_59-40" data-name="Rectangle 59" width="6" height="6" transform="translate(606 662)" fill="#fff"/>
    </g>
    <g transform="translate(-480 -608)">
      <rect id="Rectangle_59-41" data-name="Rectangle 59" width="6" height="6" transform="translate(606 662)" fill="#fff"/>
    </g>
    <g transform="translate(-462 -608)">
      <rect id="Rectangle_59-42" data-name="Rectangle 59" width="6" height="6" transform="translate(606 662)" fill="#fff"/>
    </g>
    <g transform="translate(-444 -608)">
      <rect id="Rectangle_59-43" data-name="Rectangle 59" width="6" height="6" transform="translate(606 662)" fill="#fff"/>
    </g>
    <g transform="translate(-426 -608)">
      <rect id="Rectangle_59-44" data-name="Rectangle 59" width="6" height="6" transform="translate(606 662)" fill="#fff"/>
    </g>
    <g transform="translate(-606 -590)">
      <rect id="Rectangle_59-45" data-name="Rectangle 59" width="6" height="6" transform="translate(606 662)" fill="#fff"/>
    </g>
    <g transform="translate(-588 -590)">
      <rect id="Rectangle_59-46" data-name="Rectangle 59" width="6" height="6" transform="translate(606 662)" fill="#fff"/>
    </g>
    <g transform="translate(-570 -590)">
      <rect id="Rectangle_59-47" data-name="Rectangle 59" width="6" height="6" transform="translate(606 662)" fill="#fff"/>
    </g>
    <g transform="translate(-552 -590)">
      <rect id="Rectangle_59-48" data-name="Rectangle 59" width="6" height="6" transform="translate(606 662)" fill="#fff"/>
    </g>
    <g transform="translate(-534 -590)">
      <rect id="Rectangle_59-49" data-name="Rectangle 59" width="6" height="6" transform="translate(606 662)" fill="#fff"/>
    </g>
    <g transform="translate(-516 -590)">
      <rect id="Rectangle_59-50" data-name="Rectangle 59" width="6" height="6" transform="translate(606 662)" fill="#fff"/>
    </g>
    <g transform="translate(-498 -590)">
      <rect id="Rectangle_59-51" data-name="Rectangle 59" width="6" height="6" transform="translate(606 662)" fill="#fff"/>
    </g>
    <g transform="translate(-480 -590)">
      <rect id="Rectangle_59-52" data-name="Rectangle 59" width="6" height="6" transform="translate(606 662)" fill="#fff"/>
    </g>
    <g transform="translate(-462 -590)">
      <rect id="Rectangle_59-53" data-name="Rectangle 59" width="6" height="6" transform="translate(606 662)" fill="#fff"/>
    </g>
    <g transform="translate(-444 -590)">
      <rect id="Rectangle_59-54" data-name="Rectangle 59" width="6" height="6" transform="translate(606 662)" fill="#fff"/>
    </g>
    <g transform="translate(-426 -590)">
      <rect id="Rectangle_59-55" data-name="Rectangle 59" width="6" height="6" transform="translate(606 662)" fill="#fff"/>
    </g>
    <g transform="translate(-606 -572)">
      <rect id="Rectangle_59-56" data-name="Rectangle 59" width="6" height="6" transform="translate(606 662)" fill="#fff"/>
    </g>
    <g transform="translate(-588 -572)">
      <rect id="Rectangle_59-57" data-name="Rectangle 59" width="6" height="6" transform="translate(606 662)" fill="#fff"/>
    </g>
    <g transform="translate(-570 -572)">
      <rect id="Rectangle_59-58" data-name="Rectangle 59" width="6" height="6" transform="translate(606 662)" fill="#fff"/>
    </g>
    <g transform="translate(-552 -572)">
      <rect id="Rectangle_59-59" data-name="Rectangle 59" width="6" height="6" transform="translate(606 662)" fill="#fff"/>
    </g>
    <g transform="translate(-534 -572)">
      <rect id="Rectangle_59-60" data-name="Rectangle 59" width="6" height="6" transform="translate(606 662)" fill="#fff"/>
    </g>
    <g transform="translate(-516 -572)">
      <rect id="Rectangle_59-61" data-name="Rectangle 59" width="6" height="6" transform="translate(606 662)" fill="#fff"/>
    </g>
    <g transform="translate(-498 -572)">
      <rect id="Rectangle_59-62" data-name="Rectangle 59" width="6" height="6" transform="translate(606 662)" fill="#fff"/>
    </g>
    <g transform="translate(-480 -572)">
      <rect id="Rectangle_59-63" data-name="Rectangle 59" width="6" height="6" transform="translate(606 662)" fill="#fff"/>
    </g>
    <g transform="translate(-462 -572)">
      <rect id="Rectangle_59-64" data-name="Rectangle 59" width="6" height="6" transform="translate(606 662)" fill="#fff"/>
    </g>
    <g transform="translate(-444 -572)">
      <rect id="Rectangle_59-65" data-name="Rectangle 59" width="6" height="6" transform="translate(606 662)" fill="#fff"/>
    </g>
    <g transform="translate(-426 -572)">
      <rect id="Rectangle_59-66" data-name="Rectangle 59" width="6" height="6" transform="translate(606 662)" fill="#fff"/>
    </g>
    <g transform="translate(-606 -554)">
      <rect id="Rectangle_59-67" data-name="Rectangle 59" width="6" height="6" transform="translate(606 662)" fill="#fff"/>
    </g>
    <g transform="translate(-588 -554)">
      <rect id="Rectangle_59-68" data-name="Rectangle 59" width="6" height="6" transform="translate(606 662)" fill="#fff"/>
    </g>
    <g transform="translate(-570 -554)">
      <rect id="Rectangle_59-69" data-name="Rectangle 59" width="6" height="6" transform="translate(606 662)" fill="#fff"/>
    </g>
    <g transform="translate(-552 -554)">
      <rect id="Rectangle_59-70" data-name="Rectangle 59" width="6" height="6" transform="translate(606 662)" fill="#fff"/>
    </g>
    <g transform="translate(-534 -554)">
      <rect id="Rectangle_59-71" data-name="Rectangle 59" width="6" height="6" transform="translate(606 662)" fill="#fff"/>
    </g>
    <g transform="translate(-516 -554)">
      <rect id="Rectangle_59-72" data-name="Rectangle 59" width="6" height="6" transform="translate(606 662)" fill="#fff"/>
    </g>
    <g transform="translate(-498 -554)">
      <rect id="Rectangle_59-73" data-name="Rectangle 59" width="6" height="6" transform="translate(606 662)" fill="#fff"/>
    </g>
    <g transform="translate(-480 -554)">
      <rect id="Rectangle_59-74" data-name="Rectangle 59" width="6" height="6" transform="translate(606 662)" fill="#fff"/>
    </g>
    <g transform="translate(-462 -554)">
      <rect id="Rectangle_59-75" data-name="Rectangle 59" width="6" height="6" transform="translate(606 662)" fill="#fff"/>
    </g>
    <g transform="translate(-444 -554)">
      <rect id="Rectangle_59-76" data-name="Rectangle 59" width="6" height="6" transform="translate(606 662)" fill="#fff"/>
    </g>
    <g transform="translate(-426 -554)">
      <rect id="Rectangle_59-77" data-name="Rectangle 59" width="6" height="6" transform="translate(606 662)" fill="#fff"/>
    </g>
  </g>
</svg>
