<svg xmlns="http://www.w3.org/2000/svg" xmlns:xlink="http://www.w3.org/1999/xlink" width="205" height="76" viewBox="0 0 205 76">
  <defs>
    <clipPath id="clip-path">
      <rect id="Rectangle_58" data-name="Rectangle 58" width="205" height="76" rx="38" transform="translate(455.292 364)" fill="#fff"/>
    </clipPath>
    <clipPath id="clip-path-2">
      <rect width="205" height="75" fill="none"/>
    </clipPath>
  </defs>
  <g id="Mask_Group_2" data-name="Mask Group 2" transform="translate(-455.292 -364)" clip-path="url(#clip-path)">
    <g id="Group_2" data-name="Group 2" transform="translate(455.345 364)">
      <g id="Repeat_Grid_2" data-name="Repeat Grid 2" transform="translate(-0.053)" clip-path="url(#clip-path-2)">
        <g transform="translate(-455 -364)">
          <rect id="Rectangle_3" data-name="Rectangle 3" width="6" height="6" transform="translate(455 364)" fill="#fff" opacity="0.8"/>
        </g>
        <g transform="translate(-435 -364)">
          <rect id="Rectangle_4" data-name="Rectangle 4" width="6" height="6" transform="translate(455 364)" fill="#fff" opacity="0.8"/>
        </g>
        <g transform="translate(-415 -364)">
          <rect id="Rectangle_5" data-name="Rectangle 5" width="6" height="6" transform="translate(455 364)" fill="#fff" opacity="0.8"/>
        </g>
        <g transform="translate(-395 -364)">
          <rect id="Rectangle_6" data-name="Rectangle 6" width="6" height="6" transform="translate(455 364)" fill="#fff" opacity="0.8"/>
        </g>
        <g transform="translate(-375 -364)">
          <rect id="Rectangle_7" data-name="Rectangle 7" width="6" height="6" transform="translate(455 364)" fill="#fff" opacity="0.8"/>
        </g>
        <g transform="translate(-355 -364)">
          <rect id="Rectangle_8" data-name="Rectangle 8" width="6" height="6" transform="translate(455 364)" fill="#fff" opacity="0.8"/>
        </g>
        <g transform="translate(-335 -364)">
          <rect id="Rectangle_9" data-name="Rectangle 9" width="6" height="6" transform="translate(455 364)" fill="#fff" opacity="0.8"/>
        </g>
        <g transform="translate(-315 -364)">
          <rect id="Rectangle_10" data-name="Rectangle 10" width="6" height="6" transform="translate(455 364)" fill="#fff" opacity="0.8"/>
        </g>
        <g transform="translate(-295 -364)">
          <rect id="Rectangle_11" data-name="Rectangle 11" width="6" height="6" transform="translate(455 364)" fill="#fff" opacity="0.8"/>
        </g>
        <g transform="translate(-275 -364)">
          <rect id="Rectangle_12" data-name="Rectangle 12" width="6" height="6" transform="translate(455 364)" fill="#fff" opacity="0.8"/>
        </g>
        <g transform="translate(-255 -364)">
          <rect id="Rectangle_13" data-name="Rectangle 13" width="6" height="6" transform="translate(455 364)" fill="#fff" opacity="0.8"/>
        </g>
        <g transform="translate(-455 -347)">
          <rect id="Rectangle_14" data-name="Rectangle 14" width="6" height="6" transform="translate(455 364)" fill="#fff" opacity="0.8"/>
        </g>
        <g transform="translate(-435 -347)">
          <rect id="Rectangle_15" data-name="Rectangle 15" width="6" height="6" transform="translate(455 364)" fill="#fff" opacity="0.8"/>
        </g>
        <g transform="translate(-415 -347)">
          <rect id="Rectangle_16" data-name="Rectangle 16" width="6" height="6" transform="translate(455 364)" fill="#fff" opacity="0.8"/>
        </g>
        <g transform="translate(-395 -347)">
          <rect id="Rectangle_17" data-name="Rectangle 17" width="6" height="6" transform="translate(455 364)" fill="#fff" opacity="0.8"/>
        </g>
        <g transform="translate(-375 -347)">
          <rect id="Rectangle_18" data-name="Rectangle 18" width="6" height="6" transform="translate(455 364)" fill="#fff" opacity="0.8"/>
        </g>
        <g transform="translate(-355 -347)">
          <rect id="Rectangle_19" data-name="Rectangle 19" width="6" height="6" transform="translate(455 364)" fill="#fff" opacity="0.8"/>
        </g>
        <g transform="translate(-335 -347)">
          <rect id="Rectangle_20" data-name="Rectangle 20" width="6" height="6" transform="translate(455 364)" fill="#fff" opacity="0.8"/>
        </g>
        <g transform="translate(-315 -347)">
          <rect id="Rectangle_21" data-name="Rectangle 21" width="6" height="6" transform="translate(455 364)" fill="#fff" opacity="0.8"/>
        </g>
        <g transform="translate(-295 -347)">
          <rect id="Rectangle_22" data-name="Rectangle 22" width="6" height="6" transform="translate(455 364)" fill="#fff" opacity="0.8"/>
        </g>
        <g transform="translate(-275 -347)">
          <rect id="Rectangle_23" data-name="Rectangle 23" width="6" height="6" transform="translate(455 364)" fill="#fff" opacity="0.8"/>
        </g>
        <g transform="translate(-255 -347)">
          <rect id="Rectangle_24" data-name="Rectangle 24" width="6" height="6" transform="translate(455 364)" fill="#fff" opacity="0.8"/>
        </g>
        <g transform="translate(-455 -330)">
          <rect id="Rectangle_25" data-name="Rectangle 25" width="6" height="6" transform="translate(455 364)" fill="#fff" opacity="0.8"/>
        </g>
        <g transform="translate(-435 -330)">
          <rect id="Rectangle_26" data-name="Rectangle 26" width="6" height="6" transform="translate(455 364)" fill="#fff" opacity="0.8"/>
        </g>
        <g transform="translate(-415 -330)">
          <rect id="Rectangle_27" data-name="Rectangle 27" width="6" height="6" transform="translate(455 364)" fill="#fff" opacity="0.8"/>
        </g>
        <g transform="translate(-395 -330)">
          <rect id="Rectangle_28" data-name="Rectangle 28" width="6" height="6" transform="translate(455 364)" fill="#fff" opacity="0.8"/>
        </g>
        <g transform="translate(-375 -330)">
          <rect id="Rectangle_29" data-name="Rectangle 29" width="6" height="6" transform="translate(455 364)" fill="#fff" opacity="0.8"/>
        </g>
        <g transform="translate(-355 -330)">
          <rect id="Rectangle_30" data-name="Rectangle 30" width="6" height="6" transform="translate(455 364)" fill="#fff" opacity="0.8"/>
        </g>
        <g transform="translate(-335 -330)">
          <rect id="Rectangle_31" data-name="Rectangle 31" width="6" height="6" transform="translate(455 364)" fill="#fff" opacity="0.8"/>
        </g>
        <g transform="translate(-315 -330)">
          <rect id="Rectangle_32" data-name="Rectangle 32" width="6" height="6" transform="translate(455 364)" fill="#fff" opacity="0.8"/>
        </g>
        <g transform="translate(-295 -330)">
          <rect id="Rectangle_33" data-name="Rectangle 33" width="6" height="6" transform="translate(455 364)" fill="#fff" opacity="0.8"/>
        </g>
        <g transform="translate(-275 -330)">
          <rect id="Rectangle_34" data-name="Rectangle 34" width="6" height="6" transform="translate(455 364)" fill="#fff" opacity="0.8"/>
        </g>
        <g transform="translate(-255 -330)">
          <rect id="Rectangle_35" data-name="Rectangle 35" width="6" height="6" transform="translate(455 364)" fill="#fff" opacity="0.8"/>
        </g>
        <g transform="translate(-455 -313)">
          <rect id="Rectangle_36" data-name="Rectangle 36" width="6" height="6" transform="translate(455 364)" fill="#fff" opacity="0.8"/>
        </g>
        <g transform="translate(-435 -313)">
          <rect id="Rectangle_37" data-name="Rectangle 37" width="6" height="6" transform="translate(455 364)" fill="#fff" opacity="0.8"/>
        </g>
        <g transform="translate(-415 -313)">
          <rect id="Rectangle_38" data-name="Rectangle 38" width="6" height="6" transform="translate(455 364)" fill="#fff" opacity="0.8"/>
        </g>
        <g transform="translate(-395 -313)">
          <rect id="Rectangle_39" data-name="Rectangle 39" width="6" height="6" transform="translate(455 364)" fill="#fff" opacity="0.8"/>
        </g>
        <g transform="translate(-375 -313)">
          <rect id="Rectangle_40" data-name="Rectangle 40" width="6" height="6" transform="translate(455 364)" fill="#fff" opacity="0.8"/>
        </g>
        <g transform="translate(-355 -313)">
          <rect id="Rectangle_41" data-name="Rectangle 41" width="6" height="6" transform="translate(455 364)" fill="#fff" opacity="0.8"/>
        </g>
        <g transform="translate(-335 -313)">
          <rect id="Rectangle_42" data-name="Rectangle 42" width="6" height="6" transform="translate(455 364)" fill="#fff" opacity="0.8"/>
        </g>
        <g transform="translate(-315 -313)">
          <rect id="Rectangle_43" data-name="Rectangle 43" width="6" height="6" transform="translate(455 364)" fill="#fff" opacity="0.8"/>
        </g>
        <g transform="translate(-295 -313)">
          <rect id="Rectangle_44" data-name="Rectangle 44" width="6" height="6" transform="translate(455 364)" fill="#fff" opacity="0.8"/>
        </g>
        <g transform="translate(-275 -313)">
          <rect id="Rectangle_45" data-name="Rectangle 45" width="6" height="6" transform="translate(455 364)" fill="#fff" opacity="0.8"/>
        </g>
        <g transform="translate(-255 -313)">
          <rect id="Rectangle_46" data-name="Rectangle 46" width="6" height="6" transform="translate(455 364)" fill="#fff" opacity="0.8"/>
        </g>
        <g transform="translate(-455 -296)">
          <rect id="Rectangle_47" data-name="Rectangle 47" width="6" height="6" transform="translate(455 364)" fill="#fff" opacity="0.8"/>
        </g>
        <g transform="translate(-435 -296)">
          <rect id="Rectangle_48" data-name="Rectangle 48" width="6" height="6" transform="translate(455 364)" fill="#fff" opacity="0.8"/>
        </g>
        <g transform="translate(-415 -296)">
          <rect id="Rectangle_49" data-name="Rectangle 49" width="6" height="6" transform="translate(455 364)" fill="#fff" opacity="0.8"/>
        </g>
        <g transform="translate(-395 -296)">
          <rect id="Rectangle_50" data-name="Rectangle 50" width="6" height="6" transform="translate(455 364)" fill="#fff" opacity="0.8"/>
        </g>
        <g transform="translate(-375 -296)">
          <rect id="Rectangle_51" data-name="Rectangle 51" width="6" height="6" transform="translate(455 364)" fill="#fff" opacity="0.8"/>
        </g>
        <g transform="translate(-355 -296)">
          <rect id="Rectangle_52" data-name="Rectangle 52" width="6" height="6" transform="translate(455 364)" fill="#fff" opacity="0.8"/>
        </g>
        <g transform="translate(-335 -296)">
          <rect id="Rectangle_53" data-name="Rectangle 53" width="6" height="6" transform="translate(455 364)" fill="#fff" opacity="0.8"/>
        </g>
        <g transform="translate(-315 -296)">
          <rect id="Rectangle_54" data-name="Rectangle 54" width="6" height="6" transform="translate(455 364)" fill="#fff" opacity="0.8"/>
        </g>
        <g transform="translate(-295 -296)">
          <rect id="Rectangle_55" data-name="Rectangle 55" width="6" height="6" transform="translate(455 364)" fill="#fff" opacity="0.8"/>
        </g>
        <g transform="translate(-275 -296)">
          <rect id="Rectangle_56" data-name="Rectangle 56" width="6" height="6" transform="translate(455 364)" fill="#fff" opacity="0.8"/>
        </g>
        <g transform="translate(-255 -296)">
          <rect id="Rectangle_57" data-name="Rectangle 57" width="6" height="6" transform="translate(455 364)" fill="#fff" opacity="0.8"/>
        </g>
      </g>
    </g>
  </g>
</svg>
